<svg width="251" height="254" viewBox="0 0 251 254" fill="none" xmlns="http://www.w3.org/2000/svg">
<path d="M125.165 0.884766C129.688 0.884766 130.266 10.145 134.774 10.5231C139.282 10.9012 141.373 1.86046 145.835 2.60928C150.296 3.35811 149.352 12.5827 153.735 13.7067C158.118 14.8307 161.663 6.24515 165.938 7.72353C170.214 9.2019 167.773 18.1537 171.916 19.9775C176.06 21.8014 180.955 13.9351 184.939 16.1C188.922 18.2649 185.038 26.6828 188.829 29.1755C192.619 31.6681 198.731 24.7092 202.304 27.5043C205.876 30.2994 200.665 37.9612 204 41.0425C207.334 44.1238 214.495 38.2829 217.56 41.6237C220.625 44.9645 214.242 51.6728 217.015 55.2657C219.788 58.8585 227.828 54.2766 230.302 58.083C232.776 61.8894 225.374 67.4426 227.529 71.4477C229.684 75.4527 238.356 72.2558 240.172 76.421C241.987 80.5863 233.787 84.8375 235.257 89.1436C236.727 93.4497 245.804 91.7371 246.915 96.1425C248.026 100.548 239.233 103.389 239.978 107.876C240.723 112.363 249.956 112.176 250.326 116.706C250.695 121.236 241.567 122.583 241.567 126.761C241.567 131.681 250.698 133.025 250.326 137.558C249.953 142.091 240.723 141.904 239.978 146.388C239.233 150.872 248.02 153.714 246.915 158.127C245.81 162.54 236.727 160.822 235.257 165.12C233.787 169.419 242 173.678 240.172 177.843C238.343 182.008 229.684 178.817 227.529 182.822C225.374 186.827 232.776 192.369 230.302 196.179C227.828 199.99 219.794 195.411 217.015 198.997C214.236 202.582 220.626 209.286 217.56 212.628C214.493 215.971 207.326 210.128 204 213.21C200.674 216.291 205.869 223.96 202.304 226.754C198.738 229.547 192.613 222.588 188.829 225.082C185.044 227.577 188.915 235.992 184.939 238.152C180.962 240.313 176.067 232.449 171.916 234.274C167.766 236.1 170.22 245.052 165.938 246.529C161.657 248.005 158.124 239.436 153.735 240.551C149.346 241.666 150.296 250.9 145.835 251.65C141.373 252.4 139.282 243.36 134.774 243.733C130.266 244.107 129.686 253.372 125.165 253.372C120.643 253.372 120.064 244.107 115.556 243.733C111.048 243.36 108.958 252.399 104.497 251.65C100.035 250.901 100.979 241.668 96.5885 240.551C92.1981 239.435 88.6685 248.005 84.3853 246.529C80.1022 245.052 82.5565 236.107 78.4133 234.274C74.2701 232.442 69.3749 240.318 65.391 238.152C61.4072 235.986 65.2912 227.569 61.501 225.082C57.7108 222.596 51.5988 229.541 48.0275 226.754C44.4562 223.966 49.6657 216.291 46.3312 213.21C42.9967 210.128 35.8362 215.977 32.7713 212.628C29.7064 209.28 36.0894 202.587 33.3104 198.997C30.5314 195.407 22.5027 199.986 20.029 196.179C17.5553 192.373 24.9436 186.82 22.802 182.822C20.6605 178.824 11.975 182.007 10.1595 177.843C8.3441 173.679 16.5441 169.426 15.0742 165.12C13.6042 160.814 4.53303 162.533 3.42352 158.127C2.314 153.722 11.1052 150.881 10.3591 146.388C9.61297 141.895 0.380915 142.088 0.0115729 137.558C-0.357769 133.028 8.77004 131.68 8.77004 126.761C8.77004 122.583 -0.360748 121.238 0.0115729 116.706C0.383893 112.175 9.61446 112.36 10.3591 107.876C11.1037 103.392 2.31698 100.548 3.42352 96.1425C4.53005 91.7371 13.6117 93.4423 15.0742 89.1436C16.5366 84.8449 8.3441 80.5863 10.1595 76.421C11.975 72.2558 20.6485 75.4453 22.802 71.4477C24.9556 67.45 17.5553 61.8953 20.029 58.083C22.5027 54.2707 30.5374 58.8585 33.3104 55.2657C36.0835 51.6728 29.7064 44.9779 32.7713 41.6237C35.8362 38.2696 42.9997 44.1252 46.3297 41.041C49.6598 37.9567 44.4607 30.298 48.026 27.5028C51.5913 24.7077 57.7153 31.6547 61.4995 29.174C65.2838 26.6932 61.4132 18.2649 65.3895 16.0985C69.3659 13.9321 74.2612 21.8014 78.4118 19.9761C82.5624 18.1507 80.1081 9.20041 84.3838 7.72204C88.6596 6.24367 92.2055 14.8158 96.587 13.7052C100.968 12.5946 100.032 3.35662 104.495 2.6078C108.958 1.85898 111.048 10.8968 115.554 10.5231C120.061 10.1494 120.637 0.884766 125.165 0.884766Z" fill="url(#paint0_linear_3274_3064)"/>
<defs>
<linearGradient id="paint0_linear_3274_3064" x1="64.7398" y1="20.3072" x2="178.037" y2="253.376" gradientUnits="userSpaceOnUse">
<stop stop-color="#FF0000"/>
<stop offset="1" stop-color="#B50000"/>
</linearGradient>
</defs>
</svg>
